<svg xmlns="http://www.w3.org/2000/svg" xmlns:xlink="http://www.w3.org/1999/xlink" width="250" zoomAndPan="magnify" viewBox="0 0 187.5 37.5" height="50" preserveAspectRatio="xMidYMid meet" version="1.0"><defs><g/><clipPath id="bdcd1183c6"><path d="M 149.152344 0.382812 L 186.019531 0.382812 L 186.019531 36.621094 L 149.152344 36.621094 Z M 149.152344 0.382812 " clip-rule="nonzero"/></clipPath><clipPath id="f21b2119af"><path d="M 186.988281 7.785156 L 186.988281 29.21875 C 186.988281 31.183594 186.210938 33.066406 184.820312 34.453125 C 183.433594 35.839844 181.550781 36.621094 179.589844 36.621094 L 156.550781 36.621094 C 154.589844 36.621094 152.707031 35.839844 151.316406 34.453125 C 149.929688 33.066406 149.152344 31.183594 149.152344 29.21875 L 149.152344 7.785156 C 149.152344 5.824219 149.929688 3.941406 151.316406 2.550781 C 152.707031 1.164062 154.589844 0.382812 156.550781 0.382812 L 179.589844 0.382812 C 181.550781 0.382812 183.433594 1.164062 184.820312 2.550781 C 186.210938 3.941406 186.988281 5.824219 186.988281 7.785156 Z M 186.988281 7.785156 " clip-rule="nonzero"/></clipPath><clipPath id="d38247bedb"><path d="M 0.152344 0.382812 L 37.019531 0.382812 L 37.019531 36.621094 L 0.152344 36.621094 Z M 0.152344 0.382812 " clip-rule="nonzero"/></clipPath><clipPath id="bbf000a6f2"><path d="M 37.988281 7.785156 L 37.988281 29.21875 C 37.988281 31.183594 37.210938 33.066406 35.820312 34.453125 C 34.433594 35.839844 32.550781 36.621094 30.589844 36.621094 L 7.550781 36.621094 C 5.589844 36.621094 3.707031 35.839844 2.316406 34.453125 C 0.929688 33.066406 0.152344 31.183594 0.152344 29.21875 L 0.152344 7.785156 C 0.152344 5.824219 0.929688 3.941406 2.316406 2.550781 C 3.707031 1.164062 5.589844 0.382812 7.550781 0.382812 L 30.589844 0.382812 C 32.550781 0.382812 34.433594 1.164062 35.820312 2.550781 C 37.210938 3.941406 37.988281 5.824219 37.988281 7.785156 Z M 37.988281 7.785156 " clip-rule="nonzero"/></clipPath><clipPath id="3130d2b2ba"><rect x="0" width="38" y="0" height="37"/></clipPath><clipPath id="90da9dfacb"><path d="M 147 0 L 186.019531 0 L 186.019531 37.007812 L 147 37.007812 Z M 147 0 " clip-rule="nonzero"/></clipPath><clipPath id="1d9693f3f2"><rect x="0" width="40" y="0" height="38"/></clipPath><clipPath id="d94a2ca0cb"><path d="M 173 16 L 186 16 L 186 29 L 173 29 Z M 173 16 " clip-rule="nonzero"/></clipPath><clipPath id="37b76c8a4d"><path d="M 173.386719 21.195312 L 176.855469 16.960938 L 185.191406 23.789062 L 181.71875 28.023438 Z M 173.386719 21.195312 " clip-rule="nonzero"/></clipPath><clipPath id="80ba96725d"><path d="M 0.171875 0.816406 L 12.25 0.816406 L 12.25 12.183594 L 0.171875 12.183594 Z M 0.171875 0.816406 " clip-rule="nonzero"/></clipPath><clipPath id="61cdfe8c2a"><path d="M 0.386719 5.195312 L 3.855469 0.960938 L 12.191406 7.789062 L 8.71875 12.023438 Z M 0.386719 5.195312 " clip-rule="nonzero"/></clipPath><clipPath id="74412a58fc"><rect x="0" width="13" y="0" height="13"/></clipPath></defs><g clip-path="url(#bdcd1183c6)"><g clip-path="url(#f21b2119af)"><g transform="matrix(1, 0, 0, 1, 149, -0.000000000000001471)"><g clip-path="url(#3130d2b2ba)"><g clip-path="url(#d38247bedb)"><g clip-path="url(#bbf000a6f2)"><path fill="#4d49d6" d="M 0.152344 0.382812 L 37.945312 0.382812 L 37.945312 36.621094 L 0.152344 36.621094 Z M 0.152344 0.382812 " fill-opacity="1" fill-rule="nonzero"/></g></g></g></g></g></g><g clip-path="url(#90da9dfacb)"><g transform="matrix(1, 0, 0, 1, 147, -0.000000000000001478)"><g clip-path="url(#1d9693f3f2)"><g fill="#ffffff" fill-opacity="1"><g transform="translate(12.669454, 32.601913)"><g><path d="M 5.09375 -26.796875 C 8.257812 -28.015625 11.101562 -27.898438 13.625 -26.453125 C 16.15625 -25.003906 18.078125 -22.578125 19.390625 -19.171875 L 19.96875 -17.671875 L 3.875 -11.484375 C 4.632812 -10.023438 5.707031 -9.039062 7.09375 -8.53125 C 8.488281 -8.019531 9.945312 -8.054688 11.46875 -8.640625 C 13.695312 -9.503906 15.21875 -11.191406 16.03125 -13.703125 L 20.9375 -12.28125 C 19.726562 -8.59375 17.289062 -6.039062 13.625 -4.625 C 10.394531 -3.382812 7.273438 -3.363281 4.265625 -4.5625 C 1.265625 -5.769531 -0.863281 -8.019531 -2.125 -11.3125 C -3.382812 -14.59375 -3.300781 -17.679688 -1.875 -20.578125 C -0.457031 -23.484375 1.863281 -25.554688 5.09375 -26.796875 Z M 13.171875 -19.609375 C 12.492188 -21.273438 11.492188 -22.332031 10.171875 -22.78125 C 8.859375 -23.226562 7.410156 -23.148438 5.828125 -22.546875 C 4.242188 -21.929688 3.175781 -20.988281 2.625 -19.71875 C 2.070312 -18.445312 1.976562 -17.023438 2.34375 -15.453125 Z M 13.171875 -19.609375 "/></g></g></g></g></g></g><g clip-path="url(#d94a2ca0cb)"><g clip-path="url(#37b76c8a4d)"><g transform="matrix(1, 0, 0, 1, 173, 16)"><g clip-path="url(#74412a58fc)"><g clip-path="url(#80ba96725d)"><g clip-path="url(#61cdfe8c2a)"><path fill="#4d49d6" d="M 0.386719 5.195312 L 3.855469 0.960938 L 12.195312 7.792969 L 8.722656 12.027344 Z M 0.386719 5.195312 " fill-opacity="1" fill-rule="nonzero"/></g></g></g></g></g></g></svg>