<svg xmlns="http://www.w3.org/2000/svg" xmlns:xlink="http://www.w3.org/1999/xlink" width="53" zoomAndPan="magnify" viewBox="0 0 39.75 38.249999" height="51" preserveAspectRatio="xMidYMid meet" version="1.0"><defs><g/><clipPath id="23b36f461b"><path d="M 0.257812 0 L 39.246094 0 L 39.246094 37.515625 L 0.257812 37.515625 Z M 0.257812 0 " clip-rule="nonzero"/></clipPath><clipPath id="21312bbf62"><path d="M 0.257812 0.308594 L 38.574219 0.308594 L 38.574219 37.203125 L 0.257812 37.203125 Z M 0.257812 0.308594 " clip-rule="nonzero"/></clipPath><clipPath id="b62864c56e"><path d="M 38.476562 7.664062 L 38.476562 29.847656 C 38.476562 33.910156 35.183594 37.203125 31.121094 37.203125 L 7.308594 37.203125 C 3.246094 37.203125 -0.046875 33.910156 -0.046875 29.847656 L -0.046875 7.664062 C -0.046875 3.601562 3.246094 0.308594 7.308594 0.308594 L 31.121094 0.308594 C 35.183594 0.308594 38.476562 3.601562 38.476562 7.664062 Z M 38.476562 7.664062 " clip-rule="nonzero"/></clipPath><clipPath id="7eed5b29c9"><path d="M 0.257812 0.308594 L 38.574219 0.308594 L 38.574219 37.203125 L 0.257812 37.203125 Z M 0.257812 0.308594 " clip-rule="nonzero"/></clipPath><clipPath id="221db58bc6"><path d="M 38.476562 7.664062 L 38.476562 29.847656 C 38.476562 33.910156 35.183594 37.203125 31.121094 37.203125 L 7.308594 37.203125 C 3.246094 37.203125 -0.046875 33.910156 -0.046875 29.847656 L -0.046875 7.664062 C -0.046875 3.601562 3.246094 0.308594 7.308594 0.308594 L 31.121094 0.308594 C 35.183594 0.308594 38.476562 3.601562 38.476562 7.664062 Z M 38.476562 7.664062 " clip-rule="nonzero"/></clipPath><clipPath id="80b2db325b"><rect x="0" width="39" y="0" height="38"/></clipPath><clipPath id="b22f55e369"><path d="M 0.257812 0 L 39.246094 0 L 39.246094 37.515625 L 0.257812 37.515625 Z M 0.257812 0 " clip-rule="nonzero"/></clipPath><clipPath id="21a1b08bed"><rect x="0" width="40" y="0" height="38"/></clipPath><clipPath id="e01040e6ec"><path d="M 24 17 L 37 17 L 37 29 L 24 29 Z M 24 17 " clip-rule="nonzero"/></clipPath><clipPath id="e28b36d504"><path d="M 24.625 21.5 L 28.15625 17.1875 L 36.644531 24.140625 L 33.109375 28.453125 Z M 24.625 21.5 " clip-rule="nonzero"/></clipPath><clipPath id="12a1acdb8a"><path d="M 0.503906 0.183594 L 12.746094 0.183594 L 12.746094 11.480469 L 0.503906 11.480469 Z M 0.503906 0.183594 " clip-rule="nonzero"/></clipPath><clipPath id="e53200f559"><path d="M 0.625 4.5 L 4.15625 0.1875 L 12.644531 7.140625 L 9.109375 11.453125 Z M 0.625 4.5 " clip-rule="nonzero"/></clipPath><clipPath id="7fd8bddaeb"><rect x="0" width="13" y="0" height="12"/></clipPath><clipPath id="85b86f5cc4"><rect x="0" width="40" y="0" height="38"/></clipPath></defs><g clip-path="url(#23b36f461b)"><g transform="matrix(1, 0, 0, 1, 0, 0)"><g clip-path="url(#85b86f5cc4)"><g clip-path="url(#21312bbf62)"><g clip-path="url(#b62864c56e)"><g transform="matrix(1, 0, 0, 1, 0, 0)"><g clip-path="url(#80b2db325b)"><g clip-path="url(#7eed5b29c9)"><g clip-path="url(#221db58bc6)"><path fill="#4d49d6" d="M -0.046875 0.308594 L 38.429688 0.308594 L 38.429688 37.203125 L -0.046875 37.203125 Z M -0.046875 0.308594 " fill-opacity="1" fill-rule="nonzero"/></g></g></g></g></g></g><g clip-path="url(#b22f55e369)"><g transform="matrix(1, 0, 0, 1, 0, 0)"><g clip-path="url(#21a1b08bed)"><g fill="#ffffff" fill-opacity="1"><g transform="translate(10.660597, 33.111331)"><g><path d="M 5.203125 -27.28125 C 8.421875 -28.53125 11.3125 -28.414062 13.875 -26.9375 C 16.445312 -25.457031 18.398438 -22.984375 19.734375 -19.515625 L 20.328125 -17.984375 L 3.9375 -11.6875 C 4.707031 -10.207031 5.800781 -9.207031 7.21875 -8.6875 C 8.632812 -8.175781 10.117188 -8.21875 11.671875 -8.8125 C 13.941406 -9.6875 15.5 -11.394531 16.34375 -13.9375 L 21.3125 -12.515625 C 20.082031 -8.742188 17.601562 -6.140625 13.875 -4.703125 C 10.582031 -3.441406 7.40625 -3.421875 4.34375 -4.640625 C 1.289062 -5.867188 -0.878906 -8.15625 -2.171875 -11.5 C -3.453125 -14.84375 -3.363281 -17.992188 -1.90625 -20.953125 C -0.457031 -23.910156 1.910156 -26.019531 5.203125 -27.28125 Z M 13.40625 -19.96875 C 12.707031 -21.65625 11.691406 -22.726562 10.359375 -23.1875 C 9.023438 -23.65625 7.550781 -23.582031 5.9375 -22.96875 C 4.320312 -22.34375 3.226562 -21.378906 2.65625 -20.078125 C 2.09375 -18.773438 2 -17.328125 2.375 -15.734375 Z M 13.40625 -19.96875 "/></g></g></g></g></g></g><g clip-path="url(#e01040e6ec)"><g clip-path="url(#e28b36d504)"><g transform="matrix(1, 0, 0, 1, 24, 17)"><g clip-path="url(#7fd8bddaeb)"><g clip-path="url(#12a1acdb8a)"><g clip-path="url(#e53200f559)"><path fill="#4d49d6" d="M 0.625 4.5 L 4.15625 0.1875 L 12.648438 7.144531 L 9.113281 11.457031 Z M 0.625 4.5 " fill-opacity="1" fill-rule="nonzero"/></g></g></g></g></g></g></g></g></g></svg>