<svg xmlns="http://www.w3.org/2000/svg" xmlns:xlink="http://www.w3.org/1999/xlink" width="250" zoomAndPan="magnify" viewBox="0 0 187.5 37.5" height="50" preserveAspectRatio="xMidYMid meet" version="1.0"><defs><g/><clipPath id="6f0f3896af"><path d="M 149.152344 0.382812 L 186.019531 0.382812 L 186.019531 36.621094 L 149.152344 36.621094 Z M 149.152344 0.382812 " clip-rule="nonzero"/></clipPath><clipPath id="12fbd6e0b3"><path d="M 186.988281 7.785156 L 186.988281 29.21875 C 186.988281 31.183594 186.210938 33.066406 184.820312 34.453125 C 183.433594 35.839844 181.550781 36.621094 179.589844 36.621094 L 156.550781 36.621094 C 154.589844 36.621094 152.707031 35.839844 151.316406 34.453125 C 149.929688 33.066406 149.152344 31.183594 149.152344 29.21875 L 149.152344 7.785156 C 149.152344 5.824219 149.929688 3.941406 151.316406 2.550781 C 152.707031 1.164062 154.589844 0.382812 156.550781 0.382812 L 179.589844 0.382812 C 181.550781 0.382812 183.433594 1.164062 184.820312 2.550781 C 186.210938 3.941406 186.988281 5.824219 186.988281 7.785156 Z M 186.988281 7.785156 " clip-rule="nonzero"/></clipPath><clipPath id="6d7c68b909"><path d="M 0.152344 0.382812 L 37.019531 0.382812 L 37.019531 36.621094 L 0.152344 36.621094 Z M 0.152344 0.382812 " clip-rule="nonzero"/></clipPath><clipPath id="7038659680"><path d="M 37.988281 7.785156 L 37.988281 29.21875 C 37.988281 31.183594 37.210938 33.066406 35.820312 34.453125 C 34.433594 35.839844 32.550781 36.621094 30.589844 36.621094 L 7.550781 36.621094 C 5.589844 36.621094 3.707031 35.839844 2.316406 34.453125 C 0.929688 33.066406 0.152344 31.183594 0.152344 29.21875 L 0.152344 7.785156 C 0.152344 5.824219 0.929688 3.941406 2.316406 2.550781 C 3.707031 1.164062 5.589844 0.382812 7.550781 0.382812 L 30.589844 0.382812 C 32.550781 0.382812 34.433594 1.164062 35.820312 2.550781 C 37.210938 3.941406 37.988281 5.824219 37.988281 7.785156 Z M 37.988281 7.785156 " clip-rule="nonzero"/></clipPath><clipPath id="b00b1000e3"><rect x="0" width="38" y="0" height="37"/></clipPath><clipPath id="275a565658"><path d="M 147 0 L 186.019531 0 L 186.019531 37.007812 L 147 37.007812 Z M 147 0 " clip-rule="nonzero"/></clipPath><clipPath id="2b3c6396a8"><rect x="0" width="40" y="0" height="38"/></clipPath><clipPath id="c57d5caa90"><path d="M 173 16 L 186 16 L 186 29 L 173 29 Z M 173 16 " clip-rule="nonzero"/></clipPath><clipPath id="ada2af6d18"><path d="M 173.386719 21.195312 L 176.855469 16.960938 L 185.191406 23.789062 L 181.71875 28.023438 Z M 173.386719 21.195312 " clip-rule="nonzero"/></clipPath><clipPath id="783190a8d3"><path d="M 0.171875 0.816406 L 12.25 0.816406 L 12.25 12.183594 L 0.171875 12.183594 Z M 0.171875 0.816406 " clip-rule="nonzero"/></clipPath><clipPath id="142025bed1"><path d="M 0.386719 5.195312 L 3.855469 0.960938 L 12.191406 7.789062 L 8.71875 12.023438 Z M 0.386719 5.195312 " clip-rule="nonzero"/></clipPath><clipPath id="6c74fd417e"><rect x="0" width="13" y="0" height="13"/></clipPath></defs><g clip-path="url(#6f0f3896af)"><g clip-path="url(#12fbd6e0b3)"><g transform="matrix(1, 0, 0, 1, 149, -0.000000000000001471)"><g clip-path="url(#b00b1000e3)"><g clip-path="url(#6d7c68b909)"><g clip-path="url(#7038659680)"><path fill="#4d49d6" d="M 0.152344 0.382812 L 37.945312 0.382812 L 37.945312 36.621094 L 0.152344 36.621094 Z M 0.152344 0.382812 " fill-opacity="1" fill-rule="nonzero"/></g></g></g></g></g></g><g clip-path="url(#275a565658)"><g transform="matrix(1, 0, 0, 1, 147, -0.000000000000001478)"><g clip-path="url(#2b3c6396a8)"><g fill="#ffffff" fill-opacity="1"><g transform="translate(12.669454, 32.601913)"><g><path d="M 5.09375 -26.796875 C 8.257812 -28.015625 11.101562 -27.898438 13.625 -26.453125 C 16.15625 -25.003906 18.078125 -22.578125 19.390625 -19.171875 L 19.96875 -17.671875 L 3.875 -11.484375 C 4.632812 -10.023438 5.707031 -9.039062 7.09375 -8.53125 C 8.488281 -8.019531 9.945312 -8.054688 11.46875 -8.640625 C 13.695312 -9.503906 15.21875 -11.191406 16.03125 -13.703125 L 20.9375 -12.28125 C 19.726562 -8.59375 17.289062 -6.039062 13.625 -4.625 C 10.394531 -3.382812 7.273438 -3.363281 4.265625 -4.5625 C 1.265625 -5.769531 -0.863281 -8.019531 -2.125 -11.3125 C -3.382812 -14.59375 -3.300781 -17.679688 -1.875 -20.578125 C -0.457031 -23.484375 1.863281 -25.554688 5.09375 -26.796875 Z M 13.171875 -19.609375 C 12.492188 -21.273438 11.492188 -22.332031 10.171875 -22.78125 C 8.859375 -23.226562 7.410156 -23.148438 5.828125 -22.546875 C 4.242188 -21.929688 3.175781 -20.988281 2.625 -19.71875 C 2.070312 -18.445312 1.976562 -17.023438 2.34375 -15.453125 Z M 13.171875 -19.609375 "/></g></g></g></g></g></g><g clip-path="url(#c57d5caa90)"><g clip-path="url(#ada2af6d18)"><g transform="matrix(1, 0, 0, 1, 173, 16)"><g clip-path="url(#6c74fd417e)"><g clip-path="url(#783190a8d3)"><g clip-path="url(#142025bed1)"><path fill="#4d49d6" d="M 0.386719 5.195312 L 3.855469 0.960938 L 12.195312 7.792969 L 8.722656 12.027344 Z M 0.386719 5.195312 " fill-opacity="1" fill-rule="nonzero"/></g></g></g></g></g></g><g fill="#4d49d6" fill-opacity="1"><g transform="translate(-0.823196, 26.274671)"><g><path d="M 8.402344 -16.558594 C 9.613281 -16.558594 10.65625 -16.335938 11.523438 -15.886719 C 12.402344 -15.433594 13.066406 -14.796875 13.519531 -13.980469 C 13.964844 -13.167969 14.1875 -12.230469 14.1875 -11.164062 C 14.1875 -10.097656 13.964844 -9.164062 13.515625 -8.355469 C 13.066406 -7.539062 12.402344 -6.90625 11.523438 -6.453125 C 10.65625 -6.003906 9.613281 -5.78125 8.402344 -5.78125 L 5.332031 -5.78125 L 5.332031 -6.066406 L 5.617188 -6.066406 L 5.617188 0.285156 L 1.828125 0.285156 L 1.828125 -16.558594 Z M 8.402344 -15.988281 L 2.113281 -15.988281 L 2.113281 -16.273438 L 2.398438 -16.273438 L 2.398438 0 L 2.113281 0 L 2.113281 -0.285156 L 5.332031 -0.285156 L 5.332031 0 L 5.046875 0 L 5.046875 -6.351562 L 8.402344 -6.351562 C 9.523438 -6.351562 10.476562 -6.554688 11.261719 -6.960938 C 12.039062 -7.359375 12.625 -7.917969 13.019531 -8.628906 C 13.417969 -9.351562 13.617188 -10.195312 13.617188 -11.164062 C 13.617188 -12.132812 13.417969 -12.980469 13.019531 -13.703125 C 12.625 -14.421875 12.039062 -14.980469 11.261719 -15.378906 C 10.476562 -15.785156 9.523438 -15.988281 8.402344 -15.988281 Z M 7.980469 -8.898438 C 8.800781 -8.898438 9.40625 -9.085938 9.796875 -9.460938 C 10.183594 -9.828125 10.378906 -10.394531 10.378906 -11.164062 C 10.378906 -11.9375 10.183594 -12.507812 9.796875 -12.878906 C 9.402344 -13.253906 8.800781 -13.4375 7.980469 -13.4375 L 5.332031 -13.4375 L 5.332031 -13.722656 L 5.617188 -13.722656 L 5.617188 -8.617188 L 5.332031 -8.617188 L 5.332031 -8.898438 Z M 7.980469 -8.332031 L 5.046875 -8.332031 L 5.046875 -14.007812 L 7.980469 -14.007812 C 8.949219 -14.007812 9.6875 -13.769531 10.191406 -13.289062 C 10.695312 -12.808594 10.949219 -12.097656 10.949219 -11.164062 C 10.949219 -10.234375 10.695312 -9.527344 10.1875 -9.046875 C 9.6875 -8.570312 8.949219 -8.332031 7.980469 -8.332031 Z M 7.980469 -8.332031 "/></g></g></g><g fill="#4d49d6" fill-opacity="1"><g transform="translate(12.716684, 26.274671)"><g><path d="M 12.132812 -5.15625 L 4.242188 -5.15625 L 4.242188 -5.441406 L 4.523438 -5.464844 C 4.609375 -4.472656 4.882812 -3.753906 5.347656 -3.320312 C 5.8125 -2.882812 6.457031 -2.667969 7.28125 -2.667969 C 7.933594 -2.667969 8.453125 -2.785156 8.847656 -3.019531 C 9.238281 -3.257812 9.554688 -3.617188 9.796875 -4.101562 L 9.875 -4.257812 L 10.367188 -4.257812 L 12.695312 -2.765625 L 12.589844 -2.539062 C 12.167969 -1.628906 11.53125 -0.894531 10.675781 -0.328125 C 9.820312 0.234375 8.6875 0.519531 7.28125 0.519531 C 5.964844 0.519531 4.824219 0.265625 3.859375 -0.238281 C 2.882812 -0.746094 2.128906 -1.503906 1.601562 -2.511719 C 1.078125 -3.507812 0.816406 -4.714844 0.816406 -6.132812 C 0.816406 -7.578125 1.09375 -8.800781 1.644531 -9.800781 C 2.195312 -10.804688 2.949219 -11.558594 3.898438 -12.054688 C 4.835938 -12.550781 5.890625 -12.796875 7.058594 -12.796875 C 8.871094 -12.796875 10.269531 -12.308594 11.25 -11.332031 C 12.226562 -10.355469 12.71875 -8.9375 12.71875 -7.078125 C 12.71875 -6.421875 12.695312 -5.910156 12.648438 -5.542969 L 12.632812 -5.398438 L 12.207031 -5.15625 Z M 12.132812 -5.726562 L 12.132812 -5.441406 L 11.992188 -5.691406 L 12.226562 -5.824219 L 12.367188 -5.578125 L 12.082031 -5.613281 C 12.125 -5.957031 12.148438 -6.445312 12.148438 -7.078125 C 12.148438 -8.78125 11.714844 -10.066406 10.847656 -10.929688 C 9.976562 -11.792969 8.714844 -12.226562 7.058594 -12.226562 C 5.984375 -12.226562 5.019531 -12 4.160156 -11.550781 C 3.316406 -11.105469 2.640625 -10.429688 2.140625 -9.523438 C 1.636719 -8.609375 1.386719 -7.480469 1.386719 -6.132812 C 1.386719 -4.808594 1.625 -3.6875 2.105469 -2.777344 C 2.578125 -1.875 3.25 -1.195312 4.121094 -0.742188 C 5.003906 -0.28125 6.058594 -0.0507812 7.28125 -0.0507812 C 8.574219 -0.0507812 9.601562 -0.300781 10.363281 -0.804688 C 11.125 -1.308594 11.695312 -1.96875 12.074219 -2.78125 L 12.332031 -2.660156 L 12.179688 -2.421875 L 10.132812 -3.734375 L 10.285156 -3.972656 L 10.285156 -3.6875 L 10.050781 -3.6875 L 10.050781 -3.972656 L 10.304688 -3.847656 C 10.015625 -3.261719 9.625 -2.824219 9.140625 -2.53125 C 8.65625 -2.242188 8.039062 -2.097656 7.28125 -2.097656 C 6.308594 -2.097656 5.53125 -2.367188 4.957031 -2.902344 C 4.386719 -3.4375 4.050781 -4.277344 3.957031 -5.417969 L 3.929688 -5.726562 Z M 9.199219 -7.425781 C 9.171875 -8.289062 8.980469 -8.90625 8.625 -9.28125 C 8.277344 -9.648438 7.753906 -9.832031 7.058594 -9.832031 C 6.355469 -9.832031 5.804688 -9.636719 5.398438 -9.242188 C 4.988281 -8.839844 4.71875 -8.222656 4.589844 -7.390625 L 4.308594 -7.433594 L 4.308594 -7.71875 L 9.484375 -7.71875 L 9.484375 -7.433594 Z M 9.777344 -7.152344 L 3.976562 -7.152344 L 4.027344 -7.480469 C 4.171875 -8.4375 4.5 -9.160156 5 -9.652344 C 5.515625 -10.152344 6.199219 -10.402344 7.058594 -10.402344 C 7.917969 -10.402344 8.578125 -10.160156 9.039062 -9.675781 C 9.492188 -9.195312 9.738281 -8.453125 9.769531 -7.445312 Z M 9.777344 -7.152344 "/></g></g></g><g fill="#4d49d6" fill-opacity="1"><g transform="translate(25.377388, 26.274671)"><g><path d="M 7.136719 0.519531 C 5.882812 0.519531 4.785156 0.261719 3.832031 -0.257812 C 2.871094 -0.777344 2.128906 -1.539062 1.601562 -2.542969 C 1.078125 -3.539062 0.816406 -4.734375 0.816406 -6.132812 C 0.816406 -7.53125 1.078125 -8.726562 1.601562 -9.726562 C 2.128906 -10.734375 2.871094 -11.5 3.832031 -12.019531 C 4.785156 -12.539062 5.882812 -12.796875 7.136719 -12.796875 C 8.386719 -12.796875 9.484375 -12.539062 10.4375 -12.019531 C 11.398438 -11.5 12.144531 -10.734375 12.675781 -9.726562 C 13.199219 -8.730469 13.464844 -7.53125 13.464844 -6.132812 C 13.464844 -4.734375 13.199219 -3.539062 12.675781 -2.542969 C 12.140625 -1.539062 11.398438 -0.777344 10.4375 -0.257812 C 9.484375 0.261719 8.386719 0.519531 7.136719 0.519531 Z M 7.136719 -0.0507812 C 8.289062 -0.0507812 9.300781 -0.285156 10.164062 -0.757812 C 11.023438 -1.222656 11.691406 -1.90625 12.171875 -2.808594 C 12.652344 -3.722656 12.894531 -4.828125 12.894531 -6.132812 C 12.894531 -7.4375 12.652344 -8.546875 12.171875 -9.460938 C 11.691406 -10.367188 11.023438 -11.054688 10.164062 -11.519531 C 9.300781 -11.992188 8.289062 -12.226562 7.136719 -12.226562 C 5.980469 -12.226562 4.972656 -11.992188 4.105469 -11.519531 C 3.246094 -11.054688 2.578125 -10.367188 2.105469 -9.460938 C 1.625 -8.546875 1.386719 -7.4375 1.386719 -6.132812 C 1.386719 -4.828125 1.625 -3.722656 2.105469 -2.808594 C 2.578125 -1.90625 3.246094 -1.222656 4.105469 -0.757812 C 4.972656 -0.285156 5.980469 -0.0507812 7.136719 -0.0507812 Z M 7.136719 -2.667969 C 7.996094 -2.667969 8.632812 -2.941406 9.054688 -3.492188 C 9.492188 -4.066406 9.710938 -4.945312 9.710938 -6.132812 C 9.710938 -7.363281 9.488281 -8.257812 9.039062 -8.808594 C 8.605469 -9.34375 7.972656 -9.609375 7.136719 -9.609375 C 6.277344 -9.609375 5.636719 -9.335938 5.214844 -8.78125 C 4.777344 -8.207031 4.558594 -7.324219 4.558594 -6.132812 C 4.558594 -4.945312 4.777344 -4.066406 5.214844 -3.492188 C 5.636719 -2.941406 6.273438 -2.667969 7.136719 -2.667969 Z M 7.136719 -2.097656 C 6.085938 -2.097656 5.296875 -2.445312 4.761719 -3.148438 C 4.246094 -3.824219 3.988281 -4.820312 3.988281 -6.132812 C 3.988281 -7.453125 4.246094 -8.449219 4.761719 -9.128906 C 5.296875 -9.828125 6.085938 -10.179688 7.136719 -10.179688 C 8.152344 -10.179688 8.9375 -9.84375 9.480469 -9.167969 C 10.015625 -8.511719 10.28125 -7.5 10.28125 -6.132812 C 10.28125 -4.820312 10.023438 -3.824219 9.507812 -3.148438 C 8.972656 -2.445312 8.183594 -2.097656 7.136719 -2.097656 Z M 7.136719 -2.097656 "/></g></g></g><g fill="#4d49d6" fill-opacity="1"><g transform="translate(38.961855, 26.274671)"><g><path d="M 1.484375 4.976562 L 1.484375 -12.5625 L 5.136719 -12.5625 L 5.136719 -10.675781 L 4.851562 -10.675781 L 4.90625 -10.953125 L 5.140625 -10.910156 L 5.085938 -10.628906 L 4.839844 -10.773438 C 5.230469 -11.445312 5.757812 -11.949219 6.414062 -12.292969 C 7.0625 -12.628906 7.820312 -12.796875 8.683594 -12.796875 C 9.722656 -12.796875 10.636719 -12.546875 11.421875 -12.050781 C 12.210938 -11.550781 12.820312 -10.796875 13.257812 -9.792969 C 13.683594 -8.800781 13.898438 -7.582031 13.898438 -6.132812 C 13.898438 -4.6875 13.671875 -3.472656 13.222656 -2.484375 C 12.761719 -1.484375 12.121094 -0.730469 11.300781 -0.230469 C 10.484375 0.269531 9.542969 0.519531 8.480469 0.519531 C 7.675781 0.519531 6.976562 0.382812 6.382812 0.109375 C 5.777344 -0.167969 5.269531 -0.597656 4.855469 -1.179688 L 5.085938 -1.347656 L 5.140625 -1.066406 L 4.90625 -1.023438 L 4.851562 -1.300781 L 5.136719 -1.300781 L 5.136719 5.261719 L 1.484375 5.261719 Z M 2.054688 4.976562 L 1.769531 4.976562 L 1.769531 4.691406 L 4.851562 4.691406 L 4.851562 4.976562 L 4.566406 4.976562 L 4.566406 -1.539062 L 5.214844 -1.660156 L 5.320312 -1.511719 C 5.675781 -1.011719 6.109375 -0.644531 6.621094 -0.410156 C 7.136719 -0.171875 7.757812 -0.0507812 8.480469 -0.0507812 C 9.4375 -0.0507812 10.277344 -0.273438 11.003906 -0.714844 C 11.726562 -1.15625 12.292969 -1.824219 12.703125 -2.722656 C 13.121094 -3.636719 13.328125 -4.773438 13.328125 -6.132812 C 13.328125 -7.503906 13.128906 -8.648438 12.734375 -9.566406 C 12.34375 -10.464844 11.804688 -11.132812 11.117188 -11.570312 C 10.425781 -12.007812 9.613281 -12.226562 8.683594 -12.226562 C 7.914062 -12.226562 7.242188 -12.078125 6.675781 -11.785156 C 6.117188 -11.496094 5.667969 -11.0625 5.332031 -10.488281 L 5.230469 -10.3125 L 4.566406 -10.4375 L 4.566406 -12.277344 L 4.851562 -12.277344 L 4.851562 -11.992188 L 1.769531 -11.992188 L 1.769531 -12.277344 L 2.054688 -12.277344 Z M 7.625 -2.667969 C 8.453125 -2.667969 9.074219 -2.929688 9.492188 -3.460938 C 9.925781 -4.007812 10.144531 -4.902344 10.144531 -6.132812 C 10.144531 -7.367188 9.925781 -8.257812 9.492188 -8.8125 C 9.074219 -9.34375 8.453125 -9.609375 7.625 -9.609375 C 6.855469 -9.609375 6.246094 -9.332031 5.796875 -8.78125 C 5.335938 -8.210938 5.105469 -7.328125 5.105469 -6.132812 C 5.105469 -4.945312 5.335938 -4.066406 5.796875 -3.496094 C 6.246094 -2.945312 6.855469 -2.667969 7.625 -2.667969 Z M 7.625 -2.097656 C 6.671875 -2.097656 5.917969 -2.445312 5.355469 -3.136719 C 4.808594 -3.8125 4.535156 -4.8125 4.535156 -6.132812 C 4.535156 -7.460938 4.808594 -8.464844 5.355469 -9.140625 C 5.917969 -9.832031 6.671875 -10.179688 7.625 -10.179688 C 8.636719 -10.179688 9.410156 -9.839844 9.941406 -9.164062 C 10.457031 -8.507812 10.714844 -7.496094 10.714844 -6.132812 C 10.714844 -4.769531 10.457031 -3.761719 9.941406 -3.105469 C 9.410156 -2.433594 8.636719 -2.097656 7.625 -2.097656 Z M 7.625 -2.097656 "/></g></g></g><g fill="#4d49d6" fill-opacity="1"><g transform="translate(52.98039, 26.274671)"><g><path d="M 5.097656 0.519531 C 3.914062 0.519531 3 0.191406 2.363281 -0.464844 C 1.726562 -1.117188 1.40625 -2.089844 1.40625 -3.382812 L 1.40625 -17.492188 L 5.058594 -17.492188 L 5.058594 -3.507812 C 5.058594 -3.199219 5.117188 -2.980469 5.226562 -2.84375 C 5.328125 -2.726562 5.488281 -2.667969 5.710938 -2.667969 C 5.859375 -2.667969 6.023438 -2.691406 6.195312 -2.746094 L 6.277344 -2.769531 L 6.695312 -2.648438 L 7.019531 0.105469 L 6.84375 0.195312 C 6.648438 0.300781 6.394531 0.378906 6.085938 0.4375 C 5.785156 0.492188 5.457031 0.519531 5.097656 0.519531 Z M 5.097656 -0.0507812 C 5.421875 -0.0507812 5.714844 -0.0742188 5.980469 -0.125 C 6.234375 -0.171875 6.433594 -0.234375 6.582031 -0.308594 L 6.710938 -0.0546875 L 6.429688 -0.0234375 L 6.152344 -2.394531 L 6.433594 -2.425781 L 6.355469 -2.152344 L 6.199219 -2.195312 L 6.277344 -2.472656 L 6.359375 -2.199219 C 6.132812 -2.128906 5.914062 -2.097656 5.710938 -2.097656 C 5.308594 -2.097656 5.003906 -2.226562 4.789062 -2.480469 C 4.589844 -2.722656 4.488281 -3.0625 4.488281 -3.507812 L 4.488281 -17.207031 L 4.773438 -17.207031 L 4.773438 -16.921875 L 1.691406 -16.921875 L 1.691406 -17.207031 L 1.976562 -17.207031 L 1.976562 -3.382812 C 1.976562 -2.242188 2.242188 -1.402344 2.769531 -0.859375 C 3.296875 -0.320312 4.074219 -0.0507812 5.097656 -0.0507812 Z M 5.097656 -0.0507812 "/></g></g></g><g fill="#4d49d6" fill-opacity="1"><g transform="translate(59.352776, 26.274671)"><g><path d="M 12.132812 -5.15625 L 4.242188 -5.15625 L 4.242188 -5.441406 L 4.523438 -5.464844 C 4.609375 -4.472656 4.882812 -3.753906 5.347656 -3.320312 C 5.8125 -2.882812 6.457031 -2.667969 7.28125 -2.667969 C 7.933594 -2.667969 8.453125 -2.785156 8.847656 -3.019531 C 9.238281 -3.257812 9.554688 -3.617188 9.796875 -4.101562 L 9.875 -4.257812 L 10.367188 -4.257812 L 12.695312 -2.765625 L 12.589844 -2.539062 C 12.167969 -1.628906 11.53125 -0.894531 10.675781 -0.328125 C 9.820312 0.234375 8.6875 0.519531 7.28125 0.519531 C 5.964844 0.519531 4.824219 0.265625 3.859375 -0.238281 C 2.882812 -0.746094 2.128906 -1.503906 1.601562 -2.511719 C 1.078125 -3.507812 0.816406 -4.714844 0.816406 -6.132812 C 0.816406 -7.578125 1.09375 -8.800781 1.644531 -9.800781 C 2.195312 -10.804688 2.949219 -11.558594 3.898438 -12.054688 C 4.835938 -12.550781 5.890625 -12.796875 7.058594 -12.796875 C 8.871094 -12.796875 10.269531 -12.308594 11.25 -11.332031 C 12.226562 -10.355469 12.71875 -8.9375 12.71875 -7.078125 C 12.71875 -6.421875 12.695312 -5.910156 12.648438 -5.542969 L 12.632812 -5.398438 L 12.207031 -5.15625 Z M 12.132812 -5.726562 L 12.132812 -5.441406 L 11.992188 -5.691406 L 12.226562 -5.824219 L 12.367188 -5.578125 L 12.082031 -5.613281 C 12.125 -5.957031 12.148438 -6.445312 12.148438 -7.078125 C 12.148438 -8.78125 11.714844 -10.066406 10.847656 -10.929688 C 9.976562 -11.792969 8.714844 -12.226562 7.058594 -12.226562 C 5.984375 -12.226562 5.019531 -12 4.160156 -11.550781 C 3.316406 -11.105469 2.640625 -10.429688 2.140625 -9.523438 C 1.636719 -8.609375 1.386719 -7.480469 1.386719 -6.132812 C 1.386719 -4.808594 1.625 -3.6875 2.105469 -2.777344 C 2.578125 -1.875 3.25 -1.195312 4.121094 -0.742188 C 5.003906 -0.28125 6.058594 -0.0507812 7.28125 -0.0507812 C 8.574219 -0.0507812 9.601562 -0.300781 10.363281 -0.804688 C 11.125 -1.308594 11.695312 -1.96875 12.074219 -2.78125 L 12.332031 -2.660156 L 12.179688 -2.421875 L 10.132812 -3.734375 L 10.285156 -3.972656 L 10.285156 -3.6875 L 10.050781 -3.6875 L 10.050781 -3.972656 L 10.304688 -3.847656 C 10.015625 -3.261719 9.625 -2.824219 9.140625 -2.53125 C 8.65625 -2.242188 8.039062 -2.097656 7.28125 -2.097656 C 6.308594 -2.097656 5.53125 -2.367188 4.957031 -2.902344 C 4.386719 -3.4375 4.050781 -4.277344 3.957031 -5.417969 L 3.929688 -5.726562 Z M 9.199219 -7.425781 C 9.171875 -8.289062 8.980469 -8.90625 8.625 -9.28125 C 8.277344 -9.648438 7.753906 -9.832031 7.058594 -9.832031 C 6.355469 -9.832031 5.804688 -9.636719 5.398438 -9.242188 C 4.988281 -8.839844 4.71875 -8.222656 4.589844 -7.390625 L 4.308594 -7.433594 L 4.308594 -7.71875 L 9.484375 -7.71875 L 9.484375 -7.433594 Z M 9.777344 -7.152344 L 3.976562 -7.152344 L 4.027344 -7.480469 C 4.171875 -8.4375 4.5 -9.160156 5 -9.652344 C 5.515625 -10.152344 6.199219 -10.402344 7.058594 -10.402344 C 7.917969 -10.402344 8.578125 -10.160156 9.039062 -9.675781 C 9.492188 -9.195312 9.738281 -8.453125 9.769531 -7.445312 Z M 9.777344 -7.152344 "/></g></g></g><g fill="#4d49d6" fill-opacity="1"><g transform="translate(72.013479, 26.274671)"><g><path d="M 4.785156 0.519531 C 3.953125 0.519531 3.230469 0.363281 2.609375 0.0546875 C 1.980469 -0.261719 1.492188 -0.726562 1.152344 -1.335938 C 0.816406 -1.941406 0.648438 -2.660156 0.648438 -3.496094 C 0.648438 -4.277344 0.820312 -4.9375 1.160156 -5.476562 C 1.503906 -6.019531 2.023438 -6.457031 2.726562 -6.796875 C 3.402344 -7.125 4.28125 -7.375 5.363281 -7.550781 C 6.082031 -7.664062 6.621094 -7.789062 6.984375 -7.925781 C 7.316406 -8.046875 7.53125 -8.175781 7.628906 -8.308594 C 7.726562 -8.433594 7.773438 -8.605469 7.773438 -8.816406 C 7.773438 -9.113281 7.675781 -9.339844 7.476562 -9.488281 C 7.25 -9.660156 6.851562 -9.742188 6.277344 -9.742188 C 5.640625 -9.742188 5.03125 -9.601562 4.457031 -9.316406 C 3.871094 -9.027344 3.367188 -8.648438 2.9375 -8.179688 L 2.851562 -8.085938 L 2.351562 -8.085938 L 0.855469 -10.34375 L 1 -10.507812 C 1.652344 -11.230469 2.445312 -11.792969 3.382812 -12.195312 C 4.316406 -12.59375 5.332031 -12.796875 6.433594 -12.796875 C 8.132812 -12.796875 9.375 -12.425781 10.160156 -11.683594 C 10.945312 -10.9375 11.339844 -9.886719 11.339844 -8.539062 L 11.339844 -3.207031 C 11.339844 -3.003906 11.375 -2.859375 11.449219 -2.777344 C 11.511719 -2.703125 11.621094 -2.667969 11.777344 -2.667969 C 11.925781 -2.667969 12.074219 -2.695312 12.222656 -2.75 L 12.308594 -2.78125 L 12.742188 -2.660156 L 13 -0.144531 L 12.855469 -0.0507812 C 12.65625 0.078125 12.390625 0.183594 12.050781 0.261719 C 11.726562 0.335938 11.371094 0.375 10.984375 0.375 C 10.191406 0.375 9.566406 0.214844 9.105469 -0.0976562 C 8.636719 -0.417969 8.304688 -0.910156 8.109375 -1.578125 L 8.382812 -1.660156 L 8.355469 -1.375 L 8.121094 -1.398438 L 8.148438 -1.679688 L 8.40625 -1.558594 C 8.078125 -0.867188 7.609375 -0.347656 6.996094 0.00390625 C 6.394531 0.347656 5.65625 0.519531 4.785156 0.519531 Z M 4.785156 -0.0507812 C 5.554688 -0.0507812 6.199219 -0.199219 6.714844 -0.492188 C 7.222656 -0.78125 7.613281 -1.21875 7.890625 -1.800781 L 7.976562 -1.984375 L 8.601562 -1.925781 L 8.65625 -1.738281 C 8.8125 -1.203125 9.070312 -0.8125 9.425781 -0.570312 C 9.789062 -0.320312 10.308594 -0.195312 10.984375 -0.195312 C 11.328125 -0.195312 11.640625 -0.230469 11.921875 -0.292969 C 12.195312 -0.355469 12.402344 -0.433594 12.542969 -0.527344 L 12.699219 -0.289062 L 12.417969 -0.261719 L 12.195312 -2.410156 L 12.476562 -2.4375 L 12.398438 -2.164062 L 12.242188 -2.207031 L 12.320312 -2.480469 L 12.421875 -2.214844 C 12.210938 -2.136719 11.996094 -2.097656 11.777344 -2.097656 C 11.449219 -2.097656 11.195312 -2.199219 11.019531 -2.398438 C 10.851562 -2.589844 10.769531 -2.859375 10.769531 -3.207031 L 10.769531 -8.539062 C 10.769531 -9.726562 10.433594 -10.636719 9.765625 -11.269531 C 9.09375 -11.90625 7.984375 -12.226562 6.433594 -12.226562 C 5.410156 -12.226562 4.46875 -12.039062 3.609375 -11.671875 C 2.746094 -11.300781 2.019531 -10.785156 1.425781 -10.128906 L 1.214844 -10.316406 L 1.449219 -10.476562 L 2.742188 -8.527344 L 2.503906 -8.371094 L 2.503906 -8.65625 L 2.726562 -8.65625 L 2.726562 -8.371094 L 2.515625 -8.5625 C 2.992188 -9.085938 3.554688 -9.507812 4.203125 -9.828125 C 4.859375 -10.152344 5.550781 -10.3125 6.277344 -10.3125 C 6.980469 -10.3125 7.492188 -10.191406 7.820312 -9.945312 C 8.167969 -9.679688 8.34375 -9.304688 8.34375 -8.816406 C 8.34375 -8.476562 8.257812 -8.195312 8.085938 -7.964844 C 7.917969 -7.742188 7.617188 -7.550781 7.183594 -7.390625 C 6.785156 -7.242188 6.207031 -7.109375 5.457031 -6.988281 C 4.429688 -6.820312 3.601562 -6.585938 2.972656 -6.28125 C 2.371094 -5.992188 1.925781 -5.621094 1.644531 -5.175781 C 1.359375 -4.726562 1.21875 -4.167969 1.21875 -3.496094 C 1.21875 -2.757812 1.363281 -2.128906 1.652344 -1.613281 C 1.933594 -1.105469 2.339844 -0.71875 2.867188 -0.457031 C 3.40625 -0.1875 4.042969 -0.0507812 4.785156 -0.0507812 Z M 5.765625 -2.355469 C 6.394531 -2.355469 6.890625 -2.5625 7.261719 -2.976562 C 7.640625 -3.402344 7.828125 -4.003906 7.828125 -4.785156 L 7.828125 -6.03125 L 8.113281 -6.03125 L 8.054688 -5.753906 L 7.84375 -5.796875 L 7.902344 -6.078125 L 8.082031 -5.855469 C 7.867188 -5.683594 7.597656 -5.546875 7.265625 -5.433594 C 6.949219 -5.328125 6.503906 -5.226562 5.925781 -5.128906 C 5.3125 -5.027344 4.878906 -4.859375 4.628906 -4.628906 C 4.398438 -4.414062 4.28125 -4.097656 4.28125 -3.683594 C 4.28125 -3.242188 4.40625 -2.914062 4.652344 -2.695312 C 4.910156 -2.46875 5.28125 -2.355469 5.765625 -2.355469 Z M 5.765625 -1.785156 C 5.136719 -1.785156 4.640625 -1.945312 4.273438 -2.269531 C 3.898438 -2.601562 3.710938 -3.070312 3.710938 -3.683594 C 3.710938 -4.265625 3.886719 -4.71875 4.242188 -5.046875 C 4.578125 -5.355469 5.105469 -5.570312 5.828125 -5.691406 C 6.378906 -5.785156 6.796875 -5.878906 7.082031 -5.976562 C 7.351562 -6.0625 7.566406 -6.171875 7.726562 -6.300781 L 7.828125 -6.382812 L 8.398438 -6.265625 L 8.398438 -4.785156 C 8.398438 -3.859375 8.160156 -3.132812 7.6875 -2.597656 C 7.203125 -2.054688 6.5625 -1.785156 5.765625 -1.785156 Z M 5.765625 -1.785156 "/></g></g></g><g fill="#4d49d6" fill-opacity="1"><g transform="translate(84.128808, 26.274671)"><g><path d="M 8.738281 -3.023438 L 9.605469 -0.550781 L 9.453125 -0.425781 C 9.089844 -0.128906 8.636719 0.105469 8.097656 0.273438 C 7.566406 0.4375 6.96875 0.519531 6.300781 0.519531 C 4.890625 0.519531 3.8125 0.128906 3.066406 -0.65625 C 2.324219 -1.433594 1.953125 -2.550781 1.953125 -4.007812 L 1.953125 -9.839844 L 2.238281 -9.839844 L 2.238281 -9.554688 L 0.0820312 -9.554688 L 0.0820312 -12.574219 L 2.238281 -12.574219 L 2.238281 -12.289062 L 1.953125 -12.289062 L 1.953125 -14.925781 L 5.605469 -15.515625 L 5.605469 -12.289062 L 5.320312 -12.289062 L 5.320312 -12.574219 L 9.089844 -12.574219 L 9.089844 -9.554688 L 5.320312 -9.554688 L 5.320312 -9.839844 L 5.605469 -9.839844 L 5.605469 -4.230469 C 5.605469 -3.695312 5.707031 -3.316406 5.910156 -3.089844 C 6.105469 -2.875 6.402344 -2.765625 6.800781 -2.765625 C 7.289062 -2.765625 7.710938 -2.898438 8.070312 -3.15625 L 8.144531 -3.210938 L 8.671875 -3.210938 Z M 8.203125 -2.832031 L 8.46875 -2.925781 L 8.46875 -2.640625 L 8.238281 -2.640625 L 8.238281 -2.925781 L 8.40625 -2.695312 C 7.945312 -2.363281 7.410156 -2.195312 6.800781 -2.195312 C 6.234375 -2.195312 5.796875 -2.367188 5.488281 -2.707031 C 5.1875 -3.039062 5.035156 -3.546875 5.035156 -4.230469 L 5.035156 -10.125 L 8.804688 -10.125 L 8.804688 -9.839844 L 8.519531 -9.839844 L 8.519531 -12.289062 L 8.804688 -12.289062 L 8.804688 -12.003906 L 5.035156 -12.003906 L 5.035156 -15.183594 L 5.320312 -15.183594 L 5.367188 -14.902344 L 2.28125 -14.398438 L 2.238281 -14.679688 L 2.523438 -14.679688 L 2.523438 -12.003906 L 0.367188 -12.003906 L 0.367188 -12.289062 L 0.652344 -12.289062 L 0.652344 -9.839844 L 0.367188 -9.839844 L 0.367188 -10.125 L 2.523438 -10.125 L 2.523438 -4.007812 C 2.523438 -2.703125 2.839844 -1.714844 3.480469 -1.046875 C 4.113281 -0.382812 5.054688 -0.0507812 6.300781 -0.0507812 C 6.910156 -0.0507812 7.453125 -0.125 7.929688 -0.273438 C 8.398438 -0.417969 8.785156 -0.613281 9.089844 -0.867188 L 9.273438 -0.644531 L 9.003906 -0.550781 Z M 8.203125 -2.832031 "/></g></g></g><g fill="#4d49d6" fill-opacity="1"><g transform="translate(92.983135, 26.274671)"><g><path d="M 7.769531 0.285156 L 3.945312 0.285156 L 0.0859375 -16.558594 L 3.882812 -16.558594 L 6.390625 -4.890625 L 6.109375 -4.832031 L 6.109375 -5.117188 L 6.390625 -5.117188 L 6.390625 -4.832031 L 6.113281 -4.902344 L 9.082031 -16.558594 L 12.273438 -16.558594 L 15.300781 -4.902344 L 15.027344 -4.832031 L 15.027344 -5.117188 L 15.304688 -5.117188 L 15.304688 -4.832031 L 15.027344 -4.890625 L 17.546875 -16.558594 L 21.226562 -16.558594 L 17.378906 0.285156 L 13.328125 0.285156 L 10.421875 -10.421875 L 10.695312 -10.496094 L 10.695312 -10.210938 L 10.464844 -10.210938 L 10.464844 -10.496094 L 10.738281 -10.425781 L 7.992188 0.285156 Z M 7.769531 -0.285156 L 7.769531 0 L 7.492188 -0.0703125 L 10.242188 -10.78125 L 10.914062 -10.78125 L 13.820312 -0.0742188 L 13.546875 0 L 13.546875 -0.285156 L 17.152344 -0.285156 L 17.152344 0 L 16.875 -0.0625 L 20.59375 -16.335938 L 20.871094 -16.273438 L 20.871094 -15.988281 L 17.777344 -15.988281 L 17.777344 -16.273438 L 18.054688 -16.214844 L 15.535156 -4.546875 L 14.804688 -4.546875 L 11.777344 -16.203125 L 12.054688 -16.273438 L 12.054688 -15.988281 L 9.304688 -15.988281 L 9.304688 -16.273438 L 9.582031 -16.203125 L 6.609375 -4.546875 L 5.878906 -4.546875 L 3.371094 -16.214844 L 3.652344 -16.273438 L 3.652344 -15.988281 L 0.445312 -15.988281 L 0.445312 -16.273438 L 0.722656 -16.335938 L 4.453125 -0.0625 L 4.175781 0 L 4.175781 -0.285156 Z M 7.769531 -0.285156 "/></g></g></g><g fill="#4d49d6" fill-opacity="1"><g transform="translate(113.234287, 26.274671)"><g><path d="M 7.136719 0.519531 C 5.882812 0.519531 4.785156 0.261719 3.832031 -0.257812 C 2.871094 -0.777344 2.128906 -1.539062 1.601562 -2.542969 C 1.078125 -3.539062 0.816406 -4.734375 0.816406 -6.132812 C 0.816406 -7.53125 1.078125 -8.726562 1.601562 -9.726562 C 2.128906 -10.734375 2.871094 -11.5 3.832031 -12.019531 C 4.785156 -12.539062 5.882812 -12.796875 7.136719 -12.796875 C 8.386719 -12.796875 9.484375 -12.539062 10.4375 -12.019531 C 11.398438 -11.5 12.144531 -10.734375 12.675781 -9.726562 C 13.199219 -8.730469 13.464844 -7.53125 13.464844 -6.132812 C 13.464844 -4.734375 13.199219 -3.539062 12.675781 -2.542969 C 12.140625 -1.539062 11.398438 -0.777344 10.4375 -0.257812 C 9.484375 0.261719 8.386719 0.519531 7.136719 0.519531 Z M 7.136719 -0.0507812 C 8.289062 -0.0507812 9.300781 -0.285156 10.164062 -0.757812 C 11.023438 -1.222656 11.691406 -1.90625 12.171875 -2.808594 C 12.652344 -3.722656 12.894531 -4.828125 12.894531 -6.132812 C 12.894531 -7.4375 12.652344 -8.546875 12.171875 -9.460938 C 11.691406 -10.367188 11.023438 -11.054688 10.164062 -11.519531 C 9.300781 -11.992188 8.289062 -12.226562 7.136719 -12.226562 C 5.980469 -12.226562 4.972656 -11.992188 4.105469 -11.519531 C 3.246094 -11.054688 2.578125 -10.367188 2.105469 -9.460938 C 1.625 -8.546875 1.386719 -7.4375 1.386719 -6.132812 C 1.386719 -4.828125 1.625 -3.722656 2.105469 -2.808594 C 2.578125 -1.90625 3.246094 -1.222656 4.105469 -0.757812 C 4.972656 -0.285156 5.980469 -0.0507812 7.136719 -0.0507812 Z M 7.136719 -2.667969 C 7.996094 -2.667969 8.632812 -2.941406 9.054688 -3.492188 C 9.492188 -4.066406 9.710938 -4.945312 9.710938 -6.132812 C 9.710938 -7.363281 9.488281 -8.257812 9.039062 -8.808594 C 8.605469 -9.34375 7.972656 -9.609375 7.136719 -9.609375 C 6.277344 -9.609375 5.636719 -9.335938 5.214844 -8.78125 C 4.777344 -8.207031 4.558594 -7.324219 4.558594 -6.132812 C 4.558594 -4.945312 4.777344 -4.066406 5.214844 -3.492188 C 5.636719 -2.941406 6.273438 -2.667969 7.136719 -2.667969 Z M 7.136719 -2.097656 C 6.085938 -2.097656 5.296875 -2.445312 4.761719 -3.148438 C 4.246094 -3.824219 3.988281 -4.820312 3.988281 -6.132812 C 3.988281 -7.453125 4.246094 -8.449219 4.761719 -9.128906 C 5.296875 -9.828125 6.085938 -10.179688 7.136719 -10.179688 C 8.152344 -10.179688 8.9375 -9.84375 9.480469 -9.167969 C 10.015625 -8.511719 10.28125 -7.5 10.28125 -6.132812 C 10.28125 -4.820312 10.023438 -3.824219 9.507812 -3.148438 C 8.972656 -2.445312 8.183594 -2.097656 7.136719 -2.097656 Z M 7.136719 -2.097656 "/></g></g></g><g fill="#4d49d6" fill-opacity="1"><g transform="translate(126.818755, 26.274671)"><g><path d="M 1.484375 0 L 1.484375 -12.5625 L 5.050781 -12.5625 L 5.050781 -10.453125 L 4.765625 -10.453125 L 4.816406 -10.730469 L 5.050781 -10.6875 L 4.996094 -10.40625 L 4.738281 -10.519531 C 5.054688 -11.253906 5.480469 -11.796875 6.007812 -12.148438 C 6.539062 -12.5 7.179688 -12.671875 7.925781 -12.671875 C 8.679688 -12.671875 9.261719 -12.539062 9.671875 -12.269531 L 9.832031 -12.167969 L 9.234375 -9.128906 L 8.730469 -9.03125 L 8.652344 -9.0625 C 8.46875 -9.136719 8.292969 -9.191406 8.125 -9.226562 C 7.957031 -9.261719 7.75 -9.277344 7.503906 -9.277344 C 6.738281 -9.277344 6.15625 -9.011719 5.761719 -8.484375 C 5.34375 -7.929688 5.136719 -7.015625 5.136719 -5.742188 L 5.136719 0.285156 L 1.484375 0.285156 Z M 2.054688 0 L 1.769531 0 L 1.769531 -0.285156 L 4.851562 -0.285156 L 4.851562 0 L 4.566406 0 L 4.566406 -5.742188 C 4.566406 -7.140625 4.8125 -8.167969 5.304688 -8.824219 C 5.8125 -9.507812 6.546875 -9.847656 7.503906 -9.847656 C 7.789062 -9.847656 8.03125 -9.824219 8.238281 -9.785156 C 8.441406 -9.746094 8.652344 -9.679688 8.867188 -9.589844 L 8.761719 -9.328125 L 8.707031 -9.609375 L 8.941406 -9.652344 L 8.992188 -9.371094 L 8.714844 -9.425781 L 9.238281 -12.085938 L 9.515625 -12.03125 L 9.359375 -11.792969 C 9.042969 -12 8.566406 -12.105469 7.925781 -12.105469 C 7.292969 -12.105469 6.757812 -11.960938 6.324219 -11.671875 C 5.886719 -11.382812 5.535156 -10.925781 5.257812 -10.292969 L 5.167969 -10.085938 L 4.480469 -10.214844 L 4.480469 -12.277344 L 4.765625 -12.277344 L 4.765625 -11.992188 L 1.769531 -11.992188 L 1.769531 -12.277344 L 2.054688 -12.277344 Z M 2.054688 0 "/></g></g></g><g fill="#4d49d6" fill-opacity="1"><g transform="translate(135.76212, 26.274671)"><g><path d="M 1.484375 0 L 1.484375 -17.492188 L 5.136719 -17.492188 L 5.136719 -7.65625 L 4.851562 -7.65625 L 4.851562 -7.941406 L 5.152344 -7.941406 L 5.152344 -7.65625 L 4.925781 -7.832031 L 8.5625 -12.5625 L 12.117188 -12.5625 L 12.117188 -11.925781 L 7.882812 -6.460938 L 7.65625 -6.632812 L 7.886719 -6.800781 L 12.585938 -0.371094 L 12.585938 0.285156 L 8.90625 0.285156 L 4.925781 -5.003906 L 5.152344 -5.175781 L 5.152344 -4.890625 L 4.851562 -4.890625 L 4.851562 -5.175781 L 5.136719 -5.175781 L 5.136719 0.285156 L 1.484375 0.285156 Z M 2.054688 0 L 1.769531 0 L 1.769531 -0.285156 L 4.851562 -0.285156 L 4.851562 0 L 4.566406 0 L 4.566406 -5.460938 L 5.296875 -5.460938 L 9.277344 -0.171875 L 9.050781 0 L 9.050781 -0.285156 L 12.300781 -0.285156 L 12.300781 0 L 12.015625 0 L 12.015625 -0.277344 L 12.300781 -0.277344 L 12.070312 -0.109375 L 7.300781 -6.640625 L 11.605469 -12.195312 L 11.832031 -12.019531 L 11.546875 -12.019531 L 11.546875 -12.277344 L 11.832031 -12.277344 L 11.832031 -11.992188 L 8.703125 -11.992188 L 8.703125 -12.277344 L 8.929688 -12.105469 L 5.292969 -7.375 L 4.566406 -7.375 L 4.566406 -17.207031 L 4.851562 -17.207031 L 4.851562 -16.921875 L 1.769531 -16.921875 L 1.769531 -17.207031 L 2.054688 -17.207031 Z M 2.054688 0 "/></g></g></g><g fill="#4d49d6" fill-opacity="1"><g transform="translate(-0.823196, 26.274671)"><g><path d="M 8.40625 -16.28125 C 9.570312 -16.28125 10.566406 -16.066406 11.390625 -15.640625 C 12.222656 -15.210938 12.847656 -14.613281 13.265625 -13.84375 C 13.691406 -13.070312 13.90625 -12.179688 13.90625 -11.171875 C 13.90625 -10.148438 13.691406 -9.253906 13.265625 -8.484375 C 12.847656 -7.722656 12.222656 -7.128906 11.390625 -6.703125 C 10.566406 -6.273438 9.570312 -6.0625 8.40625 -6.0625 L 5.328125 -6.0625 L 5.328125 0 L 2.109375 0 L 2.109375 -16.28125 Z M 7.984375 -8.609375 C 9.765625 -8.609375 10.65625 -9.460938 10.65625 -11.171875 C 10.65625 -12.867188 9.765625 -13.71875 7.984375 -13.71875 L 5.328125 -13.71875 L 5.328125 -8.609375 Z M 7.984375 -8.609375 "/></g></g></g><g fill="#4d49d6" fill-opacity="1"><g transform="translate(12.716684, 26.274671)"><g><path d="M 12.140625 -5.4375 L 4.234375 -5.4375 C 4.328125 -4.375 4.632812 -3.597656 5.15625 -3.109375 C 5.675781 -2.617188 6.382812 -2.375 7.28125 -2.375 C 7.988281 -2.375 8.5625 -2.503906 9 -2.765625 C 9.4375 -3.035156 9.785156 -3.4375 10.046875 -3.96875 L 10.28125 -3.96875 L 12.328125 -2.65625 C 11.929688 -1.800781 11.328125 -1.101562 10.515625 -0.5625 C 9.710938 -0.03125 8.632812 0.234375 7.28125 0.234375 C 6.007812 0.234375 4.910156 -0.00390625 3.984375 -0.484375 C 3.066406 -0.972656 2.359375 -1.691406 1.859375 -2.640625 C 1.359375 -3.597656 1.109375 -4.765625 1.109375 -6.140625 C 1.109375 -7.523438 1.367188 -8.695312 1.890625 -9.65625 C 2.421875 -10.613281 3.132812 -11.328125 4.03125 -11.796875 C 4.925781 -12.273438 5.9375 -12.515625 7.0625 -12.515625 C 8.789062 -12.515625 10.117188 -12.050781 11.046875 -11.125 C 11.972656 -10.207031 12.4375 -8.859375 12.4375 -7.078125 C 12.4375 -6.429688 12.410156 -5.929688 12.359375 -5.578125 Z M 9.484375 -7.4375 C 9.453125 -8.375 9.234375 -9.054688 8.828125 -9.484375 C 8.421875 -9.910156 7.832031 -10.125 7.0625 -10.125 C 5.5 -10.125 4.582031 -9.226562 4.3125 -7.4375 Z M 9.484375 -7.4375 "/></g></g></g><g fill="#4d49d6" fill-opacity="1"><g transform="translate(25.377388, 26.274671)"><g><path d="M 7.140625 0.234375 C 5.929688 0.234375 4.875 -0.0078125 3.96875 -0.5 C 3.0625 -1 2.359375 -1.722656 1.859375 -2.671875 C 1.359375 -3.628906 1.109375 -4.785156 1.109375 -6.140625 C 1.109375 -7.484375 1.359375 -8.632812 1.859375 -9.59375 C 2.359375 -10.550781 3.0625 -11.273438 3.96875 -11.765625 C 4.875 -12.265625 5.929688 -12.515625 7.140625 -12.515625 C 8.335938 -12.515625 9.390625 -12.265625 10.296875 -11.765625 C 11.210938 -11.273438 11.921875 -10.550781 12.421875 -9.59375 C 12.921875 -8.632812 13.171875 -7.484375 13.171875 -6.140625 C 13.171875 -4.785156 12.921875 -3.628906 12.421875 -2.671875 C 11.921875 -1.722656 11.210938 -1 10.296875 -0.5 C 9.390625 -0.0078125 8.335938 0.234375 7.140625 0.234375 Z M 7.140625 -2.375 C 9.046875 -2.375 10 -3.628906 10 -6.140625 C 10 -7.429688 9.753906 -8.378906 9.265625 -8.984375 C 8.773438 -9.585938 8.066406 -9.890625 7.140625 -9.890625 C 5.234375 -9.890625 4.28125 -8.640625 4.28125 -6.140625 C 4.28125 -3.628906 5.234375 -2.375 7.140625 -2.375 Z M 7.140625 -2.375 "/></g></g></g><g fill="#4d49d6" fill-opacity="1"><g transform="translate(38.961855, 26.274671)"><g><path d="M 1.765625 4.96875 L 1.765625 -12.28125 L 4.859375 -12.28125 L 4.859375 -10.671875 L 5.09375 -10.625 C 5.445312 -11.25 5.925781 -11.71875 6.53125 -12.03125 C 7.144531 -12.351562 7.863281 -12.515625 8.6875 -12.515625 C 9.664062 -12.515625 10.523438 -12.28125 11.265625 -11.8125 C 12.003906 -11.34375 12.578125 -10.628906 12.984375 -9.671875 C 13.398438 -8.722656 13.609375 -7.546875 13.609375 -6.140625 C 13.609375 -4.734375 13.390625 -3.554688 12.953125 -2.609375 C 12.523438 -1.660156 11.925781 -0.945312 11.15625 -0.46875 C 10.382812 0 9.492188 0.234375 8.484375 0.234375 C 7.710938 0.234375 7.050781 0.109375 6.5 -0.140625 C 5.945312 -0.398438 5.476562 -0.800781 5.09375 -1.34375 L 4.859375 -1.296875 L 4.859375 4.96875 Z M 7.625 -2.375 C 8.539062 -2.375 9.238281 -2.675781 9.71875 -3.28125 C 10.195312 -3.882812 10.4375 -4.835938 10.4375 -6.140625 C 10.4375 -7.429688 10.195312 -8.378906 9.71875 -8.984375 C 9.238281 -9.585938 8.539062 -9.890625 7.625 -9.890625 C 6.757812 -9.890625 6.070312 -9.578125 5.5625 -8.953125 C 5.0625 -8.335938 4.8125 -7.398438 4.8125 -6.140625 C 4.8125 -4.878906 5.0625 -3.9375 5.5625 -3.3125 C 6.070312 -2.6875 6.757812 -2.375 7.625 -2.375 Z M 7.625 -2.375 "/></g></g></g><g fill="#4d49d6" fill-opacity="1"><g transform="translate(52.98039, 26.274671)"><g><path d="M 5.09375 0.234375 C 3.988281 0.234375 3.144531 -0.0625 2.5625 -0.65625 C 1.976562 -1.257812 1.6875 -2.171875 1.6875 -3.390625 L 1.6875 -17.203125 L 4.78125 -17.203125 L 4.78125 -3.5 C 4.78125 -2.75 5.085938 -2.375 5.703125 -2.375 C 5.890625 -2.375 6.082031 -2.40625 6.28125 -2.46875 L 6.4375 -2.421875 L 6.71875 -0.0625 C 6.539062 0.03125 6.3125 0.101562 6.03125 0.15625 C 5.75 0.207031 5.4375 0.234375 5.09375 0.234375 Z M 5.09375 0.234375 "/></g></g></g><g fill="#4d49d6" fill-opacity="1"><g transform="translate(59.352776, 26.274671)"><g><path d="M 12.140625 -5.4375 L 4.234375 -5.4375 C 4.328125 -4.375 4.632812 -3.597656 5.15625 -3.109375 C 5.675781 -2.617188 6.382812 -2.375 7.28125 -2.375 C 7.988281 -2.375 8.5625 -2.503906 9 -2.765625 C 9.4375 -3.035156 9.785156 -3.4375 10.046875 -3.96875 L 10.28125 -3.96875 L 12.328125 -2.65625 C 11.929688 -1.800781 11.328125 -1.101562 10.515625 -0.5625 C 9.710938 -0.03125 8.632812 0.234375 7.28125 0.234375 C 6.007812 0.234375 4.910156 -0.00390625 3.984375 -0.484375 C 3.066406 -0.972656 2.359375 -1.691406 1.859375 -2.640625 C 1.359375 -3.597656 1.109375 -4.765625 1.109375 -6.140625 C 1.109375 -7.523438 1.367188 -8.695312 1.890625 -9.65625 C 2.421875 -10.613281 3.132812 -11.328125 4.03125 -11.796875 C 4.925781 -12.273438 5.9375 -12.515625 7.0625 -12.515625 C 8.789062 -12.515625 10.117188 -12.050781 11.046875 -11.125 C 11.972656 -10.207031 12.4375 -8.859375 12.4375 -7.078125 C 12.4375 -6.429688 12.410156 -5.929688 12.359375 -5.578125 Z M 9.484375 -7.4375 C 9.453125 -8.375 9.234375 -9.054688 8.828125 -9.484375 C 8.421875 -9.910156 7.832031 -10.125 7.0625 -10.125 C 5.5 -10.125 4.582031 -9.226562 4.3125 -7.4375 Z M 9.484375 -7.4375 "/></g></g></g><g fill="#4d49d6" fill-opacity="1"><g transform="translate(72.013479, 26.274671)"><g><path d="M 4.78125 0.234375 C 4 0.234375 3.316406 0.0859375 2.734375 -0.203125 C 2.160156 -0.492188 1.71875 -0.914062 1.40625 -1.46875 C 1.09375 -2.03125 0.9375 -2.707031 0.9375 -3.5 C 0.9375 -4.226562 1.09375 -4.835938 1.40625 -5.328125 C 1.71875 -5.816406 2.195312 -6.21875 2.84375 -6.53125 C 3.5 -6.851562 4.351562 -7.097656 5.40625 -7.265625 C 6.144531 -7.390625 6.703125 -7.519531 7.078125 -7.65625 C 7.460938 -7.800781 7.722656 -7.960938 7.859375 -8.140625 C 7.992188 -8.316406 8.0625 -8.539062 8.0625 -8.8125 C 8.0625 -9.207031 7.921875 -9.507812 7.640625 -9.71875 C 7.367188 -9.925781 6.914062 -10.03125 6.28125 -10.03125 C 5.59375 -10.03125 4.941406 -9.875 4.328125 -9.5625 C 3.710938 -9.257812 3.179688 -8.863281 2.734375 -8.375 L 2.5 -8.375 L 1.21875 -10.3125 C 1.832031 -11.007812 2.585938 -11.550781 3.484375 -11.9375 C 4.390625 -12.320312 5.375 -12.515625 6.4375 -12.515625 C 8.0625 -12.515625 9.234375 -12.164062 9.953125 -11.46875 C 10.679688 -10.78125 11.046875 -9.800781 11.046875 -8.53125 L 11.046875 -3.203125 C 11.046875 -2.648438 11.289062 -2.375 11.78125 -2.375 C 11.96875 -2.375 12.148438 -2.410156 12.328125 -2.484375 L 12.484375 -2.4375 L 12.703125 -0.296875 C 12.523438 -0.179688 12.285156 -0.0859375 11.984375 -0.015625 C 11.679688 0.0546875 11.347656 0.09375 10.984375 0.09375 C 10.253906 0.09375 9.679688 -0.046875 9.265625 -0.328125 C 8.859375 -0.609375 8.5625 -1.050781 8.375 -1.65625 L 8.140625 -1.6875 C 7.546875 -0.40625 6.425781 0.234375 4.78125 0.234375 Z M 5.765625 -2.078125 C 6.472656 -2.078125 7.039062 -2.3125 7.46875 -2.78125 C 7.894531 -3.257812 8.109375 -3.925781 8.109375 -4.78125 L 8.109375 -6.03125 L 7.90625 -6.078125 C 7.71875 -5.929688 7.472656 -5.804688 7.171875 -5.703125 C 6.867188 -5.597656 6.4375 -5.5 5.875 -5.40625 C 5.207031 -5.300781 4.726562 -5.113281 4.4375 -4.84375 C 4.144531 -4.570312 4 -4.1875 4 -3.6875 C 4 -3.15625 4.15625 -2.753906 4.46875 -2.484375 C 4.78125 -2.210938 5.210938 -2.078125 5.765625 -2.078125 Z M 5.765625 -2.078125 "/></g></g></g><g fill="#4d49d6" fill-opacity="1"><g transform="translate(84.128808, 26.274671)"><g><path d="M 8.46875 -2.921875 L 9.265625 -0.640625 C 8.929688 -0.367188 8.507812 -0.15625 8 0 C 7.5 0.15625 6.929688 0.234375 6.296875 0.234375 C 4.972656 0.234375 3.960938 -0.125 3.265625 -0.84375 C 2.578125 -1.570312 2.234375 -2.625 2.234375 -4 L 2.234375 -9.84375 L 0.375 -9.84375 L 0.375 -12.28125 L 2.234375 -12.28125 L 2.234375 -14.6875 L 5.328125 -15.1875 L 5.328125 -12.28125 L 8.8125 -12.28125 L 8.8125 -9.84375 L 5.328125 -9.84375 L 5.328125 -4.234375 C 5.328125 -3.617188 5.453125 -3.171875 5.703125 -2.890625 C 5.953125 -2.617188 6.316406 -2.484375 6.796875 -2.484375 C 7.347656 -2.484375 7.828125 -2.628906 8.234375 -2.921875 Z M 8.46875 -2.921875 "/></g></g></g><g fill="#4d49d6" fill-opacity="1"><g transform="translate(92.983135, 26.274671)"><g><path d="M 7.765625 0 L 4.171875 0 L 0.4375 -16.28125 L 3.65625 -16.28125 L 6.109375 -4.828125 L 6.390625 -4.828125 L 9.3125 -16.28125 L 12.0625 -16.28125 L 15.03125 -4.828125 L 15.3125 -4.828125 L 17.78125 -16.28125 L 20.875 -16.28125 L 17.15625 0 L 13.546875 0 L 10.703125 -10.5 L 10.46875 -10.5 Z M 7.765625 0 "/></g></g></g><g fill="#4d49d6" fill-opacity="1"><g transform="translate(113.234287, 26.274671)"><g><path d="M 7.140625 0.234375 C 5.929688 0.234375 4.875 -0.0078125 3.96875 -0.5 C 3.0625 -1 2.359375 -1.722656 1.859375 -2.671875 C 1.359375 -3.628906 1.109375 -4.785156 1.109375 -6.140625 C 1.109375 -7.484375 1.359375 -8.632812 1.859375 -9.59375 C 2.359375 -10.550781 3.0625 -11.273438 3.96875 -11.765625 C 4.875 -12.265625 5.929688 -12.515625 7.140625 -12.515625 C 8.335938 -12.515625 9.390625 -12.265625 10.296875 -11.765625 C 11.210938 -11.273438 11.921875 -10.550781 12.421875 -9.59375 C 12.921875 -8.632812 13.171875 -7.484375 13.171875 -6.140625 C 13.171875 -4.785156 12.921875 -3.628906 12.421875 -2.671875 C 11.921875 -1.722656 11.210938 -1 10.296875 -0.5 C 9.390625 -0.0078125 8.335938 0.234375 7.140625 0.234375 Z M 7.140625 -2.375 C 9.046875 -2.375 10 -3.628906 10 -6.140625 C 10 -7.429688 9.753906 -8.378906 9.265625 -8.984375 C 8.773438 -9.585938 8.066406 -9.890625 7.140625 -9.890625 C 5.234375 -9.890625 4.28125 -8.640625 4.28125 -6.140625 C 4.28125 -3.628906 5.234375 -2.375 7.140625 -2.375 Z M 7.140625 -2.375 "/></g></g></g><g fill="#4d49d6" fill-opacity="1"><g transform="translate(126.818755, 26.274671)"><g><path d="M 1.765625 0 L 1.765625 -12.28125 L 4.765625 -12.28125 L 4.765625 -10.453125 L 5 -10.40625 C 5.289062 -11.09375 5.675781 -11.59375 6.15625 -11.90625 C 6.644531 -12.226562 7.234375 -12.390625 7.921875 -12.390625 C 8.617188 -12.390625 9.148438 -12.269531 9.515625 -12.03125 L 9 -9.375 L 8.765625 -9.328125 C 8.554688 -9.410156 8.359375 -9.46875 8.171875 -9.5 C 7.992188 -9.539062 7.769531 -9.5625 7.5 -9.5625 C 6.644531 -9.5625 5.988281 -9.257812 5.53125 -8.65625 C 5.082031 -8.050781 4.859375 -7.082031 4.859375 -5.75 L 4.859375 0 Z M 1.765625 0 "/></g></g></g><g fill="#4d49d6" fill-opacity="1"><g transform="translate(135.76212, 26.274671)"><g><path d="M 1.765625 0 L 1.765625 -17.203125 L 4.859375 -17.203125 L 4.859375 -7.65625 L 5.15625 -7.65625 L 8.703125 -12.28125 L 11.828125 -12.28125 L 11.828125 -12.015625 L 7.65625 -6.640625 L 12.296875 -0.28125 L 12.296875 0 L 9.046875 0 L 5.15625 -5.171875 L 4.859375 -5.171875 L 4.859375 0 Z M 1.765625 0 "/></g></g></g></svg>