<svg width="88" height="68" viewBox="0 0 88 68" fill="none" xmlns="http://www.w3.org/2000/svg">
<g opacity="0.3">
<path fill-rule="evenodd" clip-rule="evenodd" d="M25.6666 14.6663C24.6942 14.6663 23.7615 15.0526 23.0739 15.7403C22.3863 16.4279 22 17.3605 22 18.333V69.6663C22 70.6388 22.3863 71.5714 23.0739 72.2591C23.7615 72.9467 24.6942 73.333 25.6666 73.333H62.3333C63.3058 73.333 64.2384 72.9467 64.926 72.2591C65.6137 71.5714 66 70.6388 66 69.6663L66 34.5185L46.1482 14.6667L25.6666 14.6663ZM17.8885 10.5548C19.9514 8.49193 22.7492 7.33301 25.6666 7.33301H46.1486C48.0932 7.33342 49.9588 8.10617 51.3337 9.48128M51.3337 9.48128L71.1846 29.3322C71.1845 29.3321 71.1848 29.3324 71.1846 29.3322C72.5598 30.7071 73.3329 32.5723 73.3333 34.5169V69.6663C73.3333 72.5837 72.1744 75.3816 70.1115 77.4445C68.0486 79.5074 65.2507 80.6663 62.3333 80.6663H25.6666C22.7492 80.6663 19.9514 79.5074 17.8885 77.4445C15.8256 75.3816 14.6666 72.5837 14.6666 69.6663V18.333C14.6666 15.4156 15.8256 12.6177 17.8885 10.5548M29.3333 43.9997C29.3333 41.9746 30.9749 40.333 33 40.333H55C57.025 40.333 58.6666 41.9746 58.6666 43.9997C58.6666 46.0247 57.025 47.6663 55 47.6663H33C30.9749 47.6663 29.3333 46.0247 29.3333 43.9997ZM29.3333 58.6663C29.3333 56.6413 30.9749 54.9997 33 54.9997H55C57.025 54.9997 58.6666 56.6413 58.6666 58.6663C58.6666 60.6914 57.025 62.333 55 62.333H33C30.9749 62.333 29.3333 60.6914 29.3333 58.6663Z" fill="#515B6F"/>
<rect x="29.3334" y="40.333" width="29.3333" height="7.33333" rx="3.66667" fill="#26A4FF"/>
<rect x="29.3334" y="55" width="29.3333" height="7.33333" rx="3.66667" fill="#26A4FF"/>
</g>
</svg>
