<svg width="64" height="65" viewBox="0 0 64 65" fill="none" xmlns="http://www.w3.org/2000/svg">
  <g clip-path="url(#clip0_2087_46603)">
    <path
      d="M53.6987 15.4885C56.5691 20.2933 57.7944 25.9031 57.1888 31.4672V34.6672C57.1888 38.0293 58.0635 41.336 59.7275 44.2544M19.1216 28.2672C19.1216 24.8752 20.4571 21.624 22.8379 19.2261C24.0126 18.0411 25.4102 17.1004 26.9502 16.4582C28.4902 15.816 30.1421 15.4849 31.8107 15.4842C35.1771 15.4842 38.4027 16.8282 40.7835 19.2261C43.1643 21.624 44.4997 24.8752 44.4997 28.2714V31.4629C44.4997 38.3792 46.7269 45.1077 50.8443 50.6416M31.8149 28.2672V34.6586C31.7988 43.7901 34.5623 52.7101 39.7381 60.233M19.1216 41.0544C19.8961 47.7303 21.8279 54.2203 24.8304 60.233M9.28694 53.8416C7.14855 46.5833 6.18491 39.0298 6.43254 31.4672V28.2757C6.41865 23.7851 7.58074 19.3692 9.80321 15.4672C12.0204 11.5761 15.2242 8.33844 19.0917 6.08049C22.9469 3.83061 27.3298 2.64363 31.7934 2.64063C36.2571 2.63763 40.6416 3.81873 44.4997 6.06342"
      stroke="#4640de" stroke-width="4.26667" stroke-linecap="square" stroke-linejoin="round"></path>
  </g>
  <defs>
    <clipPath id="clip0_2087_46603">
      <rect width="64" height="64" fill="white" transform="translate(0 0.5)"></rect>
    </clipPath>
  </defs>
</svg>