<svg width="25" height="25" viewBox="0 0 25 25" fill="none" xmlns="http://www.w3.org/2000/svg">
<path d="M20.5391 8.02336L4.53906 8.01286C3.98678 8.0125 3.53877 8.45992 3.53841 9.01221L3.53709 11.0122C3.53673 11.5645 3.98415 12.0125 4.53644 12.0129L20.5364 12.0234C21.0887 12.0237 21.5367 11.5763 21.5371 11.024L21.5384 9.02402C21.5388 8.47174 21.0913 8.02373 20.5391 8.02336Z" stroke="#7C8493" stroke-width="2" stroke-linecap="round" stroke-linejoin="round"/>
<path d="M12.5391 8.01807L12.5305 21.0181" stroke="#7C8493" stroke-width="2" stroke-linecap="round" stroke-linejoin="round"/>
<path d="M19.5366 12.0229L19.532 19.0229C19.5317 19.5533 19.3206 20.0619 18.9453 20.4367C18.57 20.8115 18.0611 21.0219 17.5307 21.0215L7.53071 21.015C7.00028 21.0146 6.49171 20.8036 6.11689 20.4283C5.74206 20.0529 5.53168 19.5441 5.53203 19.0137L5.53662 12.0137" stroke="#7C8493" stroke-width="2" stroke-linecap="round" stroke-linejoin="round"/>
<path d="M8.0392 8.01526C7.37616 8.01483 6.74045 7.75102 6.27191 7.28187C5.80338 6.81272 5.5404 6.17666 5.54084 5.51362C5.54127 4.85058 5.80508 4.21487 6.27423 3.74633C6.74338 3.2778 7.37944 3.01483 8.04248 3.01526C9.00718 2.99909 9.95221 3.46777 10.7543 4.3602C11.5565 5.25263 12.1785 6.52738 12.5392 8.01821C12.9019 6.52786 13.5256 5.25392 14.3289 4.36255C15.1322 3.47117 16.0778 3.00373 17.0425 3.02117C17.7055 3.0216 18.3412 3.28541 18.8098 3.75456C19.2783 4.22371 19.5413 4.85977 19.5408 5.52281C19.5404 6.18585 19.2766 6.82156 18.8074 7.29009C18.3383 7.75863 17.7022 8.0216 17.0392 8.02117" stroke="#7C8493" stroke-width="2" stroke-linecap="round" stroke-linejoin="round"/>
</svg>
