<svg width="25" height="25" viewBox="0 0 25 25" fill="none" xmlns="http://www.w3.org/2000/svg">
  <path
    d="M21.4626 13.279C18.6023 14.4334 15.5459 15.0239 12.4614 15.0181C9.27844 15.016 6.24185 14.394 3.46258 13.2672M12.4634 12.0181L12.4734 12.0181M16.4673 6.02074L16.4687 4.02074C16.469 3.49031 16.2586 2.98146 15.8838 2.60614C15.509 2.23082 15.0004 2.01977 14.47 2.01943L10.47 2.0168C9.93954 2.01645 9.43069 2.22683 9.05537 2.60166C8.68005 2.97649 8.46901 3.48506 8.46866 4.01549L8.46734 6.01549L16.4673 6.02074ZM5.45816 20.0135L19.4582 20.0227C19.9886 20.0231 20.4974 19.8127 20.8728 19.4378C21.2481 19.063 21.4591 18.5545 21.4595 18.024L21.466 8.02402C21.4664 7.49359 21.256 6.98474 20.8812 6.60942C20.5063 6.2341 19.9978 6.02305 19.4673 6.02271L5.46735 6.01352C4.93691 6.01317 4.42807 6.22355 4.05275 6.59838C3.67743 6.9732 3.46638 7.48177 3.46603 8.01221L3.45947 18.0122C3.45912 18.5426 3.6695 19.0515 4.04433 19.4268C4.41915 19.8021 4.92772 20.0132 5.45816 20.0135Z"
    stroke="#7C8493" stroke-width="2" stroke-linecap="round" stroke-linejoin="round" />
</svg>