<svg width="20" height="23" viewBox="0 0 20 23" fill="none" xmlns="http://www.w3.org/2000/svg">
<path fill-rule="evenodd" clip-rule="evenodd" d="M8.48292 20.2365C9.00092 20.8144 9.66592 21.132 10.3559 21.132H10.3569C11.0499 21.132 11.7179 20.8144 12.2369 20.2355C12.5149 19.928 12.9889 19.9029 13.2959 20.1804C13.6039 20.4579 13.6289 20.9336 13.3519 21.2411C12.5439 22.1396 11.4809 22.6344 10.3569 22.6344H10.3549C9.23392 22.6334 8.17292 22.1386 7.36792 21.2401C7.09092 20.9326 7.11592 20.4569 7.42392 20.1804C7.73192 19.9019 8.20592 19.927 8.48292 20.2365ZM10.4057 1.09912C14.8507 1.09912 17.8367 4.56681 17.8367 7.80511C17.8367 9.47084 18.2597 10.177 18.7087 10.9262C19.1527 11.6654 19.6557 12.5048 19.6557 14.0914C19.3067 18.1451 15.0817 18.4756 10.4057 18.4756C5.72972 18.4756 1.50372 18.1451 1.1587 14.1555C1.15572 12.5048 1.65872 11.6654 2.10272 10.9262L2.25946 10.662C2.64539 9.99757 2.97472 9.27488 2.97472 7.80511C2.97472 4.56681 5.96072 1.09912 10.4057 1.09912ZM10.4057 2.60158C6.91072 2.60158 4.47472 5.34408 4.47472 7.80511C4.47472 9.88753 3.89772 10.8501 3.38772 11.6995C2.97872 12.3816 2.65572 12.9205 2.65572 14.0914C2.82272 15.9805 4.06772 16.9731 10.4057 16.9731C16.7087 16.9731 17.9927 15.9364 18.1587 14.0263C18.1557 12.9205 17.8327 12.3816 17.4237 11.6995C16.9137 10.8501 16.3367 9.88753 16.3367 7.80511C16.3367 5.34408 13.9007 2.60158 10.4057 2.60158Z" fill="#515B6F" stroke="#515B6F" stroke-width="0.5"/>
</svg>
