<?xml version="1.0" encoding="iso-8859-1"?>
<!-- Uploaded to: SVG Repo, www.svgrepo.com, Generator: SVG Repo Mixer Tools -->
<svg fill="#4640DE" version="1.1" id="Layer_1" xmlns="http://www.w3.org/2000/svg" xmlns:xlink="http://www.w3.org/1999/xlink"  width="24" height="24"
	 viewBox="0 0 512.001 512.001" xml:space="preserve">
<g>
	<g>
		<path d="M438.967,73.033C391.872,25.936,329.256,0,262.652,0c-66.603,0-129.22,25.936-176.315,73.033
			c-47.096,47.095-73.033,109.712-73.033,176.315c0,20.499,2.51,40.924,7.463,60.709c3.174,12.682,19.011,17.067,28.252,7.822
			l119.176-119.174c4.32-4.321,9.765-7.266,15.746-8.514l127.411-26.594c22.153-4.619,41.652,15.026,37.052,37.054L321.81,328.063
			c-1.25,5.981-4.192,11.425-8.511,15.744L194.123,462.981c-9.246,9.245-4.859,25.079,7.823,28.253
			c19.784,4.95,40.209,7.461,60.707,7.461c66.603,0,129.219-25.936,176.315-73.033C486.064,378.568,512,315.951,512,249.348
			S486.063,120.128,438.967,73.033z M262.652,465.004c-7.294,0-14.575-0.367-21.81-1.096l96.279-96.279
			c8.964-8.965,15.074-20.264,17.667-32.68l26.594-127.415c9.558-45.779-30.982-86.493-76.91-76.921l-127.414,26.595
			c-12.418,2.591-23.722,8.702-32.689,17.672l-96.277,96.277c-0.73-7.236-1.097-14.517-1.097-21.811
			c0-118.912,96.743-215.655,215.657-215.655s215.656,96.743,215.656,215.657S381.566,465.004,262.652,465.004z"/>
	</g>
</g>
<g>
	<g>
		<path d="M314.308,177.759c-3.179,0.664-110.426,23.049-127.41,26.594c-3.204,0.668-6.241,2.347-8.47,4.579L4.934,382.427
			c-6.593,6.594-6.561,17.261,0,23.823L105.75,507.067c6.578,6.579,17.244,6.58,23.823,0l173.494-173.494
			c2.281-2.282,3.917-5.306,4.579-8.47l0.045-0.216c0.001-0.005,0.002-0.009,0.003-0.015c3.525-16.887,25.843-123.813,26.546-127.18
			C336.717,185.828,326.189,175.28,314.308,177.759z M117.662,471.332l-76.995-76.994l149.671-149.67L200.57,254.9L83.2,372.272
			c-6.579,6.579-6.579,17.244,0,23.823l32.705,32.706c6.574,6.575,17.246,6.578,23.823,0L257.1,311.43l10.232,10.232
			L117.662,471.332z M224.394,278.723l8.883,8.884L127.816,393.066l-8.882-8.883L224.394,278.723z M281.032,287.715l-56.748-56.748
			l32.896-6.866l30.718,30.718L281.032,287.715z"/>
	</g>
</g>
</svg>